<svg xmlns="http://www.w3.org/2000/svg" viewBox="0 0 64 64">
  <polygon fill="none" stroke="#da7756" stroke-width="3.5" stroke-linejoin="round" stroke-linecap="round" points="32.00,10.00 44.90,4.91 41.55,12.18 55.37,13.19 49.20,18.28 61.22,25.20 53.45,27.10 61.28,38.55 53.45,36.90 55.54,50.60 49.20,45.72 45.14,58.97 41.55,51.82 32.13,62.00 32.00,54.00 19.10,59.09 22.45,51.82 8.63,50.81 14.80,45.72 2.78,38.80 10.55,36.90 2.72,25.45 10.55,27.10 8.46,13.40 14.80,18.28 18.86,5.03 22.45,12.18 31.87,2.00"/>
  <path fill="none" stroke="#da7756" stroke-width="3.5" stroke-linecap="round" stroke-linejoin="round" d="M40,22 L25,22 L25,42 L40,42 M25,32 L36,32"/>
</svg>
